<svg width="121" height="32" viewBox="0 0 121 32" fill="none" xmlns="http://www.w3.org/2000/svg">
<g id="Group 93">
<g id="&#229;&#155;&#190;&#229;&#177;&#130; 45">
<path id="Vector" d="M32.0086 16.0004C32.0086 7.16703 24.8424 0.00390625 16.0004 0.00390625C7.15842 0.00390625 0.00392501 7.17095 0.00392501 16.0004C0.000285308 18.373 0.52638 20.7165 1.54382 22.8599C2.56127 25.0034 4.04439 26.8926 5.88498 28.3898L5.89674 28.3992C7.8571 26.6239 10.5334 25.8461 12.7901 25.3912L12.4765 24.8698C12.4765 24.8698 11.123 24.7498 9.99309 24.8353L9.86685 24.8463C18.1215 21.4227 20.1901 20.0583 21.3718 16.0004C21.6752 14.534 22.5339 13.604 23.5054 12.9532C24.048 15.7447 23.6144 18.6641 22.1457 21.0549C22.054 21.2039 21.9575 21.3514 21.8579 21.4964L21.7976 21.5827C21.6862 21.7395 21.5686 21.8963 21.447 22.0532L21.3733 22.1449C20.074 23.6959 18.9252 24.4879 17.8 24.8612L17.782 24.8706L24.651 29.4586L24.6871 29.4351C26.9347 27.9878 28.7829 25.9993 30.0622 23.652C31.3414 21.3046 32.0107 18.6736 32.0086 16.0004Z" fill="url(#paint0_linear_564_4186)"/>
</g>
<g id="&#229;&#155;&#190;&#229;&#177;&#130; 44">
<path id="Vector_2" d="M22.4801 5.02277C22.393 5.01414 22.2103 4.83144 22.1233 4.77969C21.997 4.69698 21.8661 4.62158 21.7312 4.55385C21.4854 4.43104 21.2296 4.32926 20.9667 4.24961C20.4866 4.11054 19.9892 4.04031 19.4894 4.04102C17.282 4.04965 14.8935 5.56147 14.3634 7.78608C14.2152 8.41339 14.2411 9.05482 14.1368 9.68057C14.0365 10.3064 13.8647 10.9186 13.6248 11.5053C12.8947 13.3033 11.626 14.8151 10.4882 16.3536C9.08929 18.2567 7.89034 20.2633 7.14305 22.5138C6.41669 24.7436 5.08673 26.7285 3.30076 28.2482L1.92773 29.3696C3.99316 30.2823 6.88507 26.8109 9.86089 24.8513C18.1155 21.4278 20.1841 20.0634 21.3658 16.0054C21.6693 14.5391 22.5279 13.6091 23.4994 12.9583C23.4472 12.6838 23.3844 12.4107 23.3113 12.1388C22.6165 9.51511 22.8768 8.21187 24.1111 7.20346C24.7384 6.70004 25.6143 6.26249 26.7528 5.7873C25.8683 5.10667 23.9833 5.13255 22.4801 5.02277ZM19.5309 7.43478C19.3937 7.43478 19.2595 7.39408 19.1454 7.31783C19.0312 7.24158 18.9423 7.13319 18.8898 7.00639C18.8372 6.87958 18.8235 6.74005 18.8503 6.60544C18.8771 6.47082 18.9431 6.34716 19.0402 6.25011C19.1373 6.15306 19.2609 6.08697 19.3955 6.06019C19.5301 6.03341 19.6697 6.04715 19.7965 6.09968C19.9233 6.1522 20.0317 6.24115 20.1079 6.35527C20.1842 6.4694 20.2249 6.60356 20.2249 6.74082C20.224 6.92432 20.1506 7.10003 20.0205 7.2295C19.8905 7.35896 19.7144 7.43165 19.5309 7.43165V7.43478Z" fill="url(#paint1_linear_564_4186)"/>
</g>
<g id="&#229;&#155;&#190;&#229;&#177;&#130; 43">
<path id="Vector_3" d="M8.07666 21.5922C10.0056 20.79 11.6053 19.5605 12.9328 17.9538C12.8623 18.0738 12.7941 18.1953 12.7188 18.3121C12.6435 18.429 12.5572 18.5599 12.4702 18.6791C12.3832 18.7983 12.2914 18.9144 12.1973 19.0273C12.1032 19.1402 12.0036 19.2476 11.8774 19.3919C11.977 19.3982 12.0421 19.4076 12.1071 19.406C12.4633 19.4043 12.8147 19.3241 13.1362 19.1709C13.4577 19.0177 13.7414 18.7954 13.9671 18.5199C14.2754 18.1698 14.5388 17.7825 14.7513 17.3673C14.7866 17.2959 14.8297 17.2261 14.8642 17.1555L14.905 17.1759C14.8038 17.3978 14.7034 17.6197 14.6015 17.8409C14.5278 17.9977 14.4588 18.1632 14.3741 18.3176C14.3166 18.4131 14.2501 18.5029 14.1757 18.5858C14.0338 18.7567 13.8864 18.9238 13.7421 19.0924L13.757 19.1355C13.8152 19.1394 13.8736 19.1394 13.9318 19.1355C14.8069 18.9967 15.5001 18.5442 16.0177 17.8448C16.2733 17.5006 16.4717 17.1132 16.685 16.7392C16.8277 16.4906 16.9508 16.231 17.1006 15.9856C16.7775 16.8976 16.4317 17.797 15.7095 18.4949L15.7354 18.5246C15.7722 18.5255 15.809 18.5223 15.8451 18.5152C16.7451 18.2734 17.5332 17.7269 18.0752 16.9689C18.7887 15.9982 19.1691 14.8229 19.1597 13.6183C19.1597 13.4246 19.1299 13.2309 19.126 13.0317C19.1377 13.0631 19.1503 13.0945 19.1605 13.1258C19.4647 14.0731 19.3299 14.9921 18.9919 15.9017C18.6673 16.7768 18.2078 17.557 17.4613 18.1396C16.7516 18.6885 15.9494 19.0586 15.101 19.3354C14.0397 19.673 12.9296 19.832 11.8162 19.8059C11.6161 19.8009 11.4209 19.8689 11.2673 19.9973C10.3307 20.7239 9.26519 21.2669 8.12685 21.5977C8.10996 21.5978 8.09312 21.596 8.07666 21.5922Z" fill="#FAF3E9"/>
</g>
<g id="&#229;&#155;&#190;&#229;&#177;&#130; 42">
<path id="Vector_4" d="M17.0159 25.0603C16.7994 25.0878 16.325 25.145 15.9847 25.1552H15.9165L19.6035 26.983L17.1272 25.0454L17.0159 25.0603Z" fill="url(#paint2_linear_564_4186)"/>
</g>
<g id="&#229;&#155;&#190;&#229;&#177;&#130; 41">
<path id="Vector_5" d="M6.64062 28.9718C9.08569 30.7372 11.9797 31.776 14.9894 31.9684C17.999 32.1608 21.0018 31.4991 23.6518 30.0594C18.1369 26.6351 12.0269 25.0354 6.64062 28.9718Z" fill="url(#paint3_linear_564_4186)"/>
</g>
<g id="&#229;&#155;&#190;&#229;&#177;&#130; 40">
<path id="Vector_6" d="M17.8 24.8611C18.9261 24.4871 20.078 23.6951 21.3687 22.1448L21.4424 22.0531C21.5639 21.8962 21.6815 21.7394 21.7929 21.5826L21.8533 21.4963C21.9529 21.3513 22.0493 21.2038 22.1411 21.0549C23.6097 18.664 24.0434 15.7447 23.5008 12.9531C22.5292 13.604 21.6706 14.534 21.3671 16.0003C20.1854 20.0582 18.1168 21.4226 9.86219 24.8462L9.98844 24.8352C11.1184 24.7497 12.4718 24.8697 12.4718 24.8697L12.7855 25.3912C10.5287 25.846 7.85009 26.6238 5.89209 28.3991C6.12733 28.5944 6.36806 28.781 6.61428 28.948L6.64094 28.9676C12.0272 25.0312 18.1372 26.6309 23.6521 30.0552L23.7023 30.0278C24.0259 29.8527 24.3419 29.6619 24.6503 29.4554L17.7812 24.8674L17.8 24.8611ZM19.6036 26.9783L15.9111 25.1536H15.9793C16.3196 25.1434 16.794 25.0861 17.0104 25.0587L17.1241 25.0438L19.6036 26.9783Z" fill="#FAF3E9"/>
</g>
<g id="&#229;&#155;&#190;&#229;&#177;&#130; 39">
<path id="Vector_7" d="M48.034 16.3141L41.9106 7.01807H46.029L49.8187 13.4911L53.81 7.0212H57.9989L51.554 16.4411V23.5564H48.034V16.3141Z" fill="url(#paint4_linear_564_4186)"/>
</g>
<g id="&#229;&#155;&#190;&#229;&#177;&#130; 38">
<path id="Vector_8" d="M69.5268 16.2151V18.7934H62.5362C62.6021 19.5864 62.8582 20.1484 63.3046 20.4793C63.7511 20.8102 64.4782 20.9754 65.4861 20.9748H69.5268V23.5531H65.1144C64.1552 23.5531 63.3742 23.4663 62.7714 23.2928C62.1579 23.1139 61.5825 22.824 61.0738 22.4373C59.6022 21.2971 58.8667 19.6031 58.8672 17.3553C58.8672 15.9015 59.2556 14.6291 60.0324 13.5381C60.5609 12.7936 61.1971 12.2646 61.941 11.951C62.6849 11.6373 63.6599 11.4805 64.8659 11.4805H69.5268V14.0587H65.1144C64.2048 14.0587 63.5684 14.2114 63.2051 14.5167C62.8417 14.822 62.6188 15.3881 62.5362 16.2151H69.5268Z" fill="url(#paint5_linear_564_4186)"/>
</g>
<g id="&#229;&#155;&#190;&#229;&#177;&#130; 37">
<path id="Vector_9" d="M76.7896 16.3141L70.667 7.01807H74.7814L78.5711 13.4911L82.5624 7.0212H86.7521L80.3064 16.4411V23.5564H76.7864L76.7896 16.3141Z" fill="url(#paint6_linear_564_4186)"/>
</g>
<g id="&#229;&#155;&#190;&#229;&#177;&#130; 36">
<path id="Vector_10" d="M88.416 10.2409V7.01807H91.7376V10.2409H88.416ZM88.416 11.4806H91.7376V23.5564H88.416V11.4806Z" fill="url(#paint7_linear_564_4186)"/>
</g>
<g id="&#229;&#155;&#190;&#229;&#177;&#130; 35">
<path id="Vector_11" d="M95.0098 11.4805H101.405C102.363 11.4805 103.095 11.5505 103.601 11.6906C104.111 11.8348 104.582 12.0937 104.977 12.4473C105.82 13.2236 106.242 14.4463 106.241 16.1155V23.5531H102.919V15.7438C102.919 15.1495 102.787 14.7198 102.523 14.4547C102.258 14.1897 101.82 14.059 101.209 14.0626H98.3314V23.557H95.0098V11.4805Z" fill="url(#paint8_linear_564_4186)"/>
</g>
<g id="&#229;&#155;&#190;&#229;&#177;&#130; 34">
<path id="Vector_12" d="M120.915 11.4805V23.4778C120.923 24.0893 120.844 24.6988 120.679 25.2876C120.543 25.7748 120.311 26.2299 119.997 26.6262C119.641 27.0712 119.163 27.4028 118.622 27.5805C118.085 27.754 117.304 27.8408 116.279 27.8408H109.66V25.2625H115.833C116.559 25.2625 117.034 25.1509 117.258 24.9277C117.482 24.7045 117.593 24.246 117.593 23.5523H114.543C113.568 23.5523 112.762 23.4478 112.127 23.2387C111.482 23.0286 110.893 22.6771 110.402 22.2099C109.195 21.0697 108.591 19.4999 108.592 17.5003C108.592 15.2195 109.327 13.5585 110.798 12.5171C111.303 12.1493 111.87 11.8764 112.472 11.7118C113.058 11.555 113.806 11.4766 114.715 11.4766L120.915 11.4805ZM117.593 14.0587H114.841C112.924 14.0587 111.966 15.2156 111.965 17.5293C111.965 18.6528 112.227 19.5077 112.749 20.0943C113.272 20.6808 114.028 20.9743 115.018 20.9749H117.596L117.593 14.0587Z" fill="url(#paint9_linear_564_4186)"/>
</g>
</g>
<defs>
<linearGradient id="paint0_linear_564_4186" x1="16.2607" y1="1.17777" x2="15.7581" y2="30.2341" gradientUnits="userSpaceOnUse">
<stop stop-color="#05398F"/>
<stop offset="1" stop-color="#142650"/>
</linearGradient>
<linearGradient id="paint1_linear_564_4186" x1="19.3482" y1="5.25409" x2="10.7093" y2="26.5192" gradientUnits="userSpaceOnUse">
<stop stop-color="#2BEE8F"/>
<stop offset="0.36" stop-color="#199FFD"/>
<stop offset="0.67" stop-color="#479FF3"/>
<stop offset="1" stop-color="#965FF1"/>
</linearGradient>
<linearGradient id="paint2_linear_564_4186" x1="18.1866" y1="1.21137" x2="17.684" y2="30.267" gradientUnits="userSpaceOnUse">
<stop stop-color="#05398F"/>
<stop offset="1" stop-color="#142650"/>
</linearGradient>
<linearGradient id="paint3_linear_564_4186" x1="15.6371" y1="1.16698" x2="15.1337" y2="30.2233" gradientUnits="userSpaceOnUse">
<stop stop-color="#05398F"/>
<stop offset="1" stop-color="#142650"/>
</linearGradient>
<linearGradient id="paint4_linear_564_4186" x1="49.9857" y1="5.55172" x2="49.4753" y2="30.031" gradientUnits="userSpaceOnUse">
<stop stop-color="#05398F"/>
<stop offset="1" stop-color="#142650"/>
</linearGradient>
<linearGradient id="paint5_linear_564_4186" x1="64.5005" y1="5.85348" x2="63.99" y2="30.3336" gradientUnits="userSpaceOnUse">
<stop stop-color="#05398F"/>
<stop offset="1" stop-color="#142650"/>
</linearGradient>
<linearGradient id="paint6_linear_564_4186" x1="78.7287" y1="6.15002" x2="78.2191" y2="30.6301" gradientUnits="userSpaceOnUse">
<stop stop-color="#05398F"/>
<stop offset="1" stop-color="#142650"/>
</linearGradient>
<linearGradient id="paint7_linear_564_4186" x1="90.2627" y1="6.39075" x2="89.7522" y2="30.8701" gradientUnits="userSpaceOnUse">
<stop stop-color="#05398F"/>
<stop offset="1" stop-color="#142650"/>
</linearGradient>
<linearGradient id="paint8_linear_564_4186" x1="100.852" y1="6.61095" x2="100.342" y2="31.091" gradientUnits="userSpaceOnUse">
<stop stop-color="#05398F"/>
<stop offset="1" stop-color="#142650"/>
</linearGradient>
<linearGradient id="paint9_linear_564_4186" x1="115.037" y1="6.90659" x2="114.527" y2="31.3867" gradientUnits="userSpaceOnUse">
<stop stop-color="#05398F"/>
<stop offset="1" stop-color="#142650"/>
</linearGradient>
</defs>
</svg>
